<?xml version="1.0" encoding="utf-8"?>
<!-- Generator: Adobe Illustrator 22.1.0, SVG Export Plug-In . SVG Version: 6.00 Build 0)  -->
<svg version="1.1" id="a20d9948-7728-4611-9263-7d211215df3d"
	 xmlns="http://www.w3.org/2000/svg" xmlns:xlink="http://www.w3.org/1999/xlink" x="0px" y="0px" viewBox="0 0 1015.7 781.7"
	 style="enable-background:new 0 0 1015.7 781.7;" xml:space="preserve">
<style type="text/css">
	.st0{fill:#FFB98D;}
	.st1{fill:#451D00;}
	.st2{fill:#2F2E41;}
	.st3{opacity:0.1;enable-background:new    ;}
	.st4{fill:#D05900;}
	.st5{fill:#3F3D56;}
	.st6{opacity:0.1;fill:#2F2E41;enable-background:new    ;}
	.st7{fill:#99D000;}
	.st8{fill:none;stroke:#FF00FF;stroke-miterlimit:10;}
	.st9{fill:#F2F2F2;}
</style>
<title>raining</title>
<path class="st0" d="M541.3,187.4c0,0-2.5,20-11.3,21.3s-42.6,2.5-46.4,12.5c-2.3,6.1-4,12.4-5,18.8l53.9,12.5l56.4,10l36.3-2.5
	c0,0,1.3-33.8-17.5-38.8s-32.6-7.5-33.8-16.3s-2.5-15-2.5-15L541.3,187.4z"/>
<circle class="st1" cx="552.6" cy="153.6" r="43.2"/>
<path class="st0" d="M454.8,313.9l-45.1,73.9c0,0-38.8,32.6-21.3,37.6s35.1-32.6,35.1-32.6l55.1-62.6L454.8,313.9z"/>
<path class="st0" d="M640.3,346.5l18.8,71.4c0,0,43.2,28.7,25.7,28.7s-38.2-25-38.2-25l-31.3-70.2L640.3,346.5z"/>
<path class="st0" d="M479.9,468c0,0-1.3,81.4-7.5,87.7s-10,92.7-8.8,110.3s-2.5,31.3-2.5,33.8s20,3.8,20,3.8l28.8-198L479.9,468z"/>
<path class="st2" d="M467.4,691.1l-8.8,2.5c0,0-2.5,20-3.8,23.8s-10,31.3,6.3,33.8s26.3-10,26.3-11.3s-5-23.8-3.8-26.3
	s3.8-22.6,3.8-22.6L467.4,691.1z"/>
<path class="st3" d="M467.4,691.1l-8.8,2.5c0,0-2.5,20-3.8,23.8s-10,31.3,6.3,33.8s26.3-10,26.3-11.3s-5-23.8-3.8-26.3
	s3.8-22.6,3.8-22.6L467.4,691.1z"/>
<path class="st2" d="M593.9,694.8l8.8,2.5c0,0,2.5,20,3.8,23.8s10,31.3-6.3,33.8s-26.3-10-26.3-11.3s5-23.8,3.8-26.3
	s-3.8-22.6-3.8-22.6L593.9,694.8z"/>
<path class="st3" d="M593.9,694.8l8.8,2.5c0,0,2.5,20,3.8,23.8s10,31.3-6.3,33.8s-26.3-10-26.3-11.3s5-23.8,3.8-26.3
	s-3.8-22.6-3.8-22.6L593.9,694.8z"/>
<circle class="st0" cx="558.8" cy="168.6" r="30.1"/>
<path class="st2" d="M506.2,320.2l-5,25.1c0,0-33.8,47.6-27.6,106.5s5,120.3,6.3,136.6s7.5,87.7-3.8,112.8s3.8,26.3,5,26.3
	s5-6.3,13.8,3.8s33.8,2.5,33.8,2.5s46.4,10,63.9,1.3s53.9-22.6,51.4-31.3s-27.6-51.4-20-76.4s-10-269.4-30.1-279.4l-5-23.8
	L506.2,320.2z"/>
<ellipse class="st1" cx="552.6" cy="141.7" rx="29.8" ry="17.9"/>
<circle class="st1" cx="555.5" cy="110.4" r="17.9"/>
<path class="st1" d="M531.7,100.7c0-9.2,6.9-16.8,16-17.8c-0.6-0.1-1.2-0.1-1.9-0.1c-9.9,0-17.9,8-17.9,17.9c0,9.9,8,17.9,17.9,17.9
	c0.6,0,1.2,0,1.9-0.1C538.6,117.5,531.7,109.8,531.7,100.7z"/>
<path class="st4" d="M475.4,232.2l2.5,5c0,0-1.3,3.8-2.5,5s-43.9,43.9-31.3,52.6s16.3,8.8,16.3,8.8s-12.5,8.8-10,10
	s27.6,21.3,30.1,17.5s3.8-12.5,3.8-12.5s5,7.5,10,5s5-6.3,5-6.3l3.8,5l85.2,3.8c0,0,6.3,3.8,6.3-1.3s3.8,18.8,15,18.8
	c0,0,1.3,12.5,5,12.5s32.6-10,30.1-12.5s-3.8-11.3-3.8-11.3s21.3-11.3,0-35.1c0,0-3.8-22.6-16.3-27.6c0,0-1.3-3.8,0-5
	c1-0.8,1.2-2.3,0.5-3.3c-0.1-0.2-0.3-0.3-0.5-0.5c-1.3-1.3,2.5-1.3,2.5-5c0-3.8-6.3-5-6.3-5s-67.7-30.1-119-23.8L475.4,232.2z"/>
<path class="st5" d="M247.6,143c0,0-7.8-14-17.3-7.3s3.3,15,3.3,15l14.4-6.3"/>
<path class="st2" d="M146.2,356.6l1.7,29.5c0,0,35.3-32.8,77-21.4c0,0,56.8-64.1,110.4-63.2c0,0,14.6-48.7,100.8-78.4
	c0,0,6.8-48.6,48.3-67l-28.6-15.8l-51.1,3.2l-69.4,27.6l-85.1,64l-97.1,66.6L146.2,356.6z"/>
<path class="st6" d="M146.2,356.6l1.7,29.5c0,0,35.3-32.8,77-21.4c0,0,56.8-64.1,110.4-63.2c0,0,14.6-48.7,100.8-78.4
	c0,0,6.8-48.6,48.3-67l-28.6-15.8l-51.1,3.2l-69.4,27.6l-85.1,64l-97.1,66.6L146.2,356.6z"/>
<path class="st5" d="M286.2,241.4l112.1,176.7c0,0,18.8,28.9,39.9,10.2c12.7-11.2,9.6-24.2,5.2-32.7c-4.7-9.1-18.6-3.6-15.7,6.2
	c0,0.2,0.1,0.3,0.1,0.5c0.1,0.2,0.8,21.1-13.4,10.9c-3.3-2.4-6-5.4-8.1-8.9L302,234.9L286.2,241.4z"/>
<path class="st3" d="M205.5,296.6c0,0,5.7,55.3,19.5,68"/>
<path class="st3" d="M382.9,173.3c0,0,45.1,34.2,53.2,49.7"/>
<path class="st7" d="M237.7,144.4c0,0-15.4,15.9-28.3,21.8c0,0-102.4,92.9-60.9,219c0,0,9.8-63.4,50.8-62.8
	c0,0,23.5-58.5,103.3-74.2c0,0,24.8-52.5,110.3-71c0,0,19.5-40.4,72.2-21.9c0,0-66.9-76.6-212.5-30.9
	C272.6,124.2,246.7,142.4,237.7,144.4z"/>
<path class="st3" d="M208.8,167.1c0,0-40.4,74.7-10.2,156.1"/>
<path class="st3" d="M302,249c-30.7-32.3-52.1-66.9-64.9-103.7"/>
<path class="st8" d="M271.6,123.6"/>
<path class="st3" d="M412.2,178c0,0-54.2-61.5-140-51.8"/>
<path class="st9" d="M741.8,19.5c-1.8,7.6-4.1,9.5-6.3,8.9s-3.4-3.2-1.6-10.8s8.2-16.8,8.2-16.8S743.6,11.9,741.8,19.5z"/>
<path class="st9" d="M331.9,246c-1.8,7.6-4.1,9.5-6.3,8.9s-3.4-3.2-1.6-10.8s8.2-16.8,8.2-16.8S333.8,238.3,331.9,246z"/>
<path class="st9" d="M269.7,94.7c-3,12.5-6.8,15.5-10.3,14.6s-5.6-5.2-2.6-17.7S270.2,64,270.2,64S272.7,82.2,269.7,94.7z"/>
<path class="st9" d="M159.7,146.7c-3,12.5-6.8,15.5-10.3,14.6c-3.6-0.9-5.6-5.2-2.6-17.7c3-12.5,13.4-27.6,13.4-27.6
	S162.7,134.2,159.7,146.7z"/>
<path class="st9" d="M60.7,338.7c-3,12.5-6.8,15.5-10.3,14.6s-5.6-5.2-2.6-17.7S61.2,308,61.2,308S63.7,326.2,60.7,338.7z"/>
<path class="st9" d="M52.7,556.7c-3,12.5-6.8,15.5-10.3,14.6s-5.6-5.2-2.6-17.7S53.2,526,53.2,526S55.7,544.2,52.7,556.7z"/>
<path class="st9" d="M484.7,76.7c-3,12.5-6.8,15.5-10.3,14.6s-5.6-5.2-2.6-17.7S485.2,46,485.2,46S487.7,64.2,484.7,76.7z"/>
<path class="st9" d="M156.6,453.5c-3,12.5-6.8,15.5-10.3,14.6s-5.6-5.2-2.6-17.7s13.4-27.6,13.4-27.6S159.6,441,156.6,453.5z"/>
<path class="st9" d="M932.7,30.7c-3,12.5-6.8,15.5-10.3,14.6s-5.6-5.2-2.6-17.7S933.2,0,933.2,0S935.7,18.2,932.7,30.7z"/>
<path class="st9" d="M254.9,328c-1.8,7.6-4.1,9.5-6.3,8.9c-2.2-0.5-3.4-3.2-1.6-10.8c1.8-7.6,8.2-16.8,8.2-16.8
	S256.8,320.3,254.9,328z"/>
<path class="st9" d="M628.8,169.5c-1.8,7.6-4.1,9.5-6.3,8.9c-2.2-0.5-3.4-3.2-1.6-10.8c1.8-7.6,8.2-16.8,8.2-16.8
	S630.6,161.9,628.8,169.5z"/>
<path class="st9" d="M482.8,587.5c-1.8,7.6-4.1,9.5-6.3,8.9s-3.4-3.2-1.6-10.8s8.2-16.8,8.2-16.8S484.6,579.9,482.8,587.5z"/>
<path class="st9" d="M139.9,553.6c-1.8,7.6-4.1,9.5-6.3,8.9c-2.2-0.5-3.4-3.2-1.6-10.8c1.8-7.6,8.2-16.8,8.2-16.8
	S141.8,545.9,139.9,553.6z"/>
<path class="st9" d="M180.8,27.5c-1.8,7.6-4.1,9.5-6.3,8.9s-3.4-3.2-1.6-10.8s8.2-16.8,8.2-16.8S182.6,19.9,180.8,27.5z"/>
<path class="st9" d="M111.8,291.5c-1.8,7.6-4.1,9.5-6.3,8.9s-3.4-3.2-1.6-10.8s8.2-16.8,8.2-16.8S113.6,283.9,111.8,291.5z"/>
<path class="st9" d="M165.8,233.5c-1.8,7.6-4.1,9.5-6.3,8.9s-3.4-3.2-1.6-10.8c1.8-7.6,8.2-16.8,8.2-16.8S167.6,225.9,165.8,233.5z"
	/>
<path class="st9" d="M291.8,137.5c-1.8,7.6-4.1,9.5-6.3,8.9c-2.2-0.5-3.4-3.2-1.6-10.8c1.8-7.6,8.2-16.8,8.2-16.8
	S293.6,129.9,291.8,137.5z"/>
<path class="st9" d="M116.6,374.8c-1.8,7.6-4.1,9.5-6.3,8.9s-3.4-3.2-1.6-10.8s8.2-16.8,8.2-16.8S118.4,367.1,116.6,374.8z"/>
<path class="st9" d="M65.8,467.5c-1.8,7.6-4.1,9.5-6.3,8.9s-3.4-3.2-1.6-10.8s8.2-16.8,8.2-16.8S67.6,459.9,65.8,467.5z"/>
<path class="st9" d="M8.8,504.5c-1.8,7.6-4.1,9.5-6.3,8.9s-3.4-3.2-1.6-10.8s8.2-16.8,8.2-16.8S10.6,496.9,8.8,504.5z"/>
<path class="st9" d="M597.8,436.5c-1.8,7.6-4.1,9.5-6.3,8.9s-3.4-3.2-1.6-10.8s8.2-16.8,8.2-16.8S599.6,428.9,597.8,436.5z"/>
<path class="st9" d="M582.8,267.5c-1.8,7.6-4.1,9.5-6.3,8.9s-3.4-3.2-1.6-10.8s8.2-16.8,8.2-16.8S584.6,259.9,582.8,267.5z"/>
<path class="st9" d="M199.9,612c-1.8,7.6-4.1,9.5-6.3,8.9s-3.4-3.2-1.6-10.8c1.8-7.6,8.2-16.8,8.2-16.8S201.8,604.3,199.9,612z"/>
<path class="st9" d="M114.9,715.1c-3,12.5-6.8,15.5-10.3,14.6s-5.6-5.2-2.6-17.7s13.4-27.6,13.4-27.6S117.8,702.6,114.9,715.1z"/>
<path class="st9" d="M683.7,517.7c-3,12.5-6.8,15.5-10.3,14.6s-5.6-5.2-2.6-17.7c3-12.5,13.4-27.6,13.4-27.6
	S686.7,505.2,683.7,517.7z"/>
<path class="st9" d="M294.3,404.5c-3,12.5-6.8,15.5-10.3,14.6s-5.6-5.2-2.6-17.7s13.4-27.6,13.4-27.6S297.3,392,294.3,404.5z"/>
<path class="st9" d="M577.8,581.5c-1.8,7.6-4.1,9.5-6.3,8.9s-3.4-3.2-1.6-10.8s8.2-16.8,8.2-16.8S579.6,573.9,577.8,581.5z"/>
<path class="st9" d="M680.8,422.5c-1.8,7.6-4.1,9.5-6.3,8.9s-3.4-3.2-1.6-10.8s8.2-16.8,8.2-16.8S682.6,414.9,680.8,422.5z"/>
<path class="st9" d="M592.8,133.5c-1.8,7.6-4.1,9.5-6.3,8.9c-2.2-0.5-3.4-3.2-1.6-10.8c1.8-7.6,8.2-16.8,8.2-16.8
	S594.6,125.9,592.8,133.5z"/>
<path class="st9" d="M713.8,662.5c-1.8,7.6-4.1,9.5-6.3,8.9s-3.4-3.2-1.6-10.8s8.2-16.8,8.2-16.8S715.6,654.9,713.8,662.5z"/>
<path class="st9" d="M572.8,33.5c-1.8,7.6-4.1,9.5-6.3,8.9s-3.4-3.2-1.6-10.8s8.2-16.8,8.2-16.8S574.6,25.9,572.8,33.5z"/>
<path class="st9" d="M708.8,298.5c-1.8,7.6-4.1,9.5-6.3,8.9s-3.4-3.2-1.6-10.8s8.2-16.8,8.2-16.8S710.6,290.9,708.8,298.5z"/>
<path class="st9" d="M242.3,478.5c-1.8,7.6-4.1,9.5-6.3,8.9s-3.4-3.2-1.6-10.8s8.2-16.8,8.2-16.8S244.1,470.8,242.3,478.5z"/>
<path class="st9" d="M317.3,603.5c-1.8,7.6-4.1,9.5-6.3,8.9s-3.4-3.2-1.6-10.8c1.8-7.6,8.2-16.8,8.2-16.8S319.1,595.8,317.3,603.5z"
	/>
<path class="st9" d="M232.2,706.6c-3,12.5-6.8,15.5-10.3,14.6s-5.6-5.2-2.6-17.7s13.4-27.6,13.4-27.6S235.2,694.1,232.2,706.6z"/>
<path class="st9" d="M399.2,504.6c-3,12.5-6.8,15.5-10.3,14.6c-3.6-0.9-5.6-5.2-2.6-17.7c3-12.5,13.4-27.6,13.4-27.6
	S402.2,492.1,399.2,504.6z"/>
<path class="st9" d="M409.3,619.5c-1.8,7.6-4.1,9.5-6.3,8.9s-3.4-3.2-1.6-10.8s8.2-16.8,8.2-16.8S411.1,611.8,409.3,619.5z"/>
</svg>
