<?xml version="1.0" encoding="utf-8"?>
<!-- Generator: Adobe Illustrator 22.1.0, SVG Export Plug-In . SVG Version: 6.00 Build 0)  -->
<svg version="1.1" id="b84795b8-6a60-40dd-82ec-a7a49f93ce2f"
	 xmlns="http://www.w3.org/2000/svg" xmlns:xlink="http://www.w3.org/1999/xlink" x="0px" y="0px" viewBox="0 0 1099.1 826.3"
	 style="enable-background:new 0 0 1099.1 826.3;" xml:space="preserve">
<style type="text/css">
	.st0{fill:#A0616A;}
	.st1{fill:#5717FF;}
	.st2{fill:#2F2E41;}
	.st3{fill:#99D000;}
	.st4{fill:#D0CDE1;}
	.st5{fill:#D05900;}
	.st6{fill:#3F3D56;}
	.st7{fill:#731F00;}
	.st8{opacity:0.15;enable-background:new    ;}
</style>
<title>windy_day</title>
<path class="st0" d="M411.4,403c0,0-14.2,66,5.2,64.7c19.4-1.3,10.3-60.8,10.3-60.8L411.4,403z"/>
<polygon class="st0" points="489,717.4 498,765.3 518.7,762.7 512.3,710.9 "/>
<polygon class="st0" points="593.8,670.8 599,705.7 626.1,705.7 620.9,673.4 "/>
<path class="st1" d="M468.3,370.7c0,0-22,42.7-14.2,148.8c7.8,106.1,7.8,207,7.8,207l55.6-3.9L533,458.6l60.8,229l40.1-3.9
	l-10.3-223.8l-32.3-107.4L468.3,370.7z"/>
<path class="st2" d="M505.8,743.3c0,0,3.9-11.6-2.6-11.6H489c0,0-15.5,28.5-24.6,31s-37.5,27.2-10.3,29.8
	c27.2,2.6,68.6-11.6,68.6-16.8s-3.9-27.2-3.9-27.2L505.8,743.3z"/>
<path class="st2" d="M619.7,698c0,0-23.8-6.6-22.2-2.6s-3.6,15.6-3.6,15.6s-12.9,73.7,25.9,67.3s10.3-62.1,10.3-62.1l-5.7-22
	L619.7,698z"/>
<ellipse transform="matrix(0.2298 -0.9732 0.9732 0.2298 342.5775 537.6748)" class="st0" cx="511" cy="52.4" rx="38.8" ry="38.8"/>
<path class="st0" d="M485.1,73.1c0,0,6.5,37.5,2.6,45.3s31,23.3,31,23.3l18.1-44V73.1L485.1,73.1z"/>
<path class="st3" d="M505.8,117.1c0,0-11.8,1.7-16.9-6.9s-16.8,59.9-16.8,59.9s5.2,90.6-1.3,111.3c-6.5,20.7-5.2,28.5-2.6,32.3
	s10.3-1.3,3.9,9.1c-6.5,10.3-6.5,3.9-6.5,14.2s-2.6,47.9-2.6,47.9l139.7-10.3l-66-283.3C536.9,91.2,514.9,118.4,505.8,117.1z"/>
<path class="st4" d="M560.1,105.4c0,0,53,7.8,55.6,19.4s54.3,335.1,27.2,351.9s-115.1,29.8-119,12.9S499.3,130,536.9,91.2
	L560.1,105.4z"/>
<path class="st2" d="M534,610c-0.7-0.2-1.4-0.5-1.9-1.1C534.2,609.8,535.1,610.3,534,610z"/>
<path class="st4" d="M488.9,107.4l-50.4,49.8l18.1,161.7c0,0-36.2,191.5-15.5,191.5c20.7,0,18.1,2.6,22-11.6
	S488.9,107.4,488.9,107.4z"/>
<path class="st4" d="M451.5,153.3l-12.9,3.9c0,0-11.6,9.1-10.3,28.5s-1.3,75-1.3,75s-7.8,11.6-3.9,25.9l-18.1,124.2l40.1,6.5
	l14.2-64.7L451.5,153.3z"/>
<path class="st0" d="M611.9,359c0,0-15.5,81.5,0,76.3c15.5-5.2,34.9-62.1,22-71.2S611.9,359,611.9,359z"/>
<path class="st2" d="M472.1,57c0,0-4-5.9-2.4-12.3c0.9-3.6,1.3-7.4,1.1-11.1c0,0,3.2-10.4,6.4-16.2s1.7-8.2,11.7-10.1
	s5.9-14.9,32.5-0.8c1.8,2.6,5,3.8,8.1,3c5.5-1.1,7.5,6.6,7.5,6.6s3.7-2.1,5,0.9S553,15.2,553,35.8s-11.1,39-11.1,39
	s0.8-34.6-17.3-38.1s-37.6-13.7-42.4-0.6C479.7,43.4,476.3,50.4,472.1,57z"/>
<path class="st5" d="M225.3,483.8c-8.6,7.1-23.7,42.2-23.7,42.2c4.8,0.5,9.7,0.7,14.6,0.5l-1.7-9.3l6.3,8.9c2.5-0.3,4.9-0.8,7.3-1.5
	l-2.6-14.3l8.2,11.6c0.1,0,0.1-0.1,0.2-0.1c8.6-7.1,13.6-21.4,11.3-31.9S233.9,476.6,225.3,483.8z"/>
<path class="st5" d="M454.3,639.8c-8.6,7.1-23.7,42.2-23.7,42.2c4.8,0.5,9.7,0.7,14.6,0.5l-1.7-9.3l6.3,8.9c2.5-0.3,4.9-0.8,7.3-1.5
	l-2.6-14.3l8.2,11.6c0.1,0,0.1-0.1,0.2-0.1c8.6-7.1,13.6-21.4,11.3-31.9S462.9,632.6,454.3,639.8z"/>
<path class="st5" d="M420.7,312.1c-7.3,7.6-22.1,42.8-22.1,42.8c3.8,0.1,7.6-0.2,11.4-0.8l-0.6-8.9l4.2,8.1c2-0.5,4-1.2,5.8-2
	l-0.8-13.6l5.4,10.5c0.1-0.1,0.1-0.1,0.2-0.2c7.3-7.6,12.5-21.9,11.5-31.8C434.7,306.4,428,304.5,420.7,312.1z"/>
<path class="st6" d="M236.9,757.9c-10.2-2.8-48.2,1-48.2,1c1.7,3.4,3.8,6.6,6.1,9.6l7.5-4.7l-5.1,7.6c1.4,1.5,2.9,2.9,4.6,4.1
	l11.6-7.2l-6.6,9.8c0.1,0,0.1,0,0.2,0.1c10.2,2.8,25.2,0.5,33.4-5S247.1,760.7,236.9,757.9z"/>
<path class="st7" d="M264.9,741.9c-10.2-2.8-48.2,1-48.2,1c1.7,3.4,3.8,6.6,6.1,9.6l7.5-4.7l-5.1,7.6c1.4,1.5,2.9,2.9,4.6,4.1
	l11.6-7.2l-6.6,9.8c0.1,0,0.1,0,0.2,0.1c10.2,2.8,25.2,0.5,33.4-5S275.1,744.7,264.9,741.9z"/>
<path class="st7" d="M562.9,804.9c-10.2-2.8-48.2,1-48.2,1c1.7,3.4,3.8,6.6,6.1,9.6l7.5-4.7l-5.1,7.6c1.4,1.5,2.9,2.9,4.6,4.1
	l11.6-7.2l-6.6,9.8c0.1,0,0.1,0,0.2,0.1c10.2,2.8,25.2,0.5,33.4-5S573.1,807.7,562.9,804.9z"/>
<path class="st7" d="M264.9,782.9c-10.2-2.8-48.2,1-48.2,1c1.7,3.4,3.8,6.6,6.1,9.6l7.5-4.7l-5.1,7.6c1.4,1.5,2.9,2.9,4.6,4.1
	l11.6-7.2l-6.6,9.8c0.1,0,0.1,0,0.2,0.1c10.2,2.8,25.2,0.5,33.4-5S275.1,785.7,264.9,782.9z"/>
<path class="st5" d="M694.3,427.7c-3.1,4.8-5.1,16.9-6.3,27.4l5.9,6.3l-6.3-2.2c-0.8,7.9-1.1,14-1.1,14s25.3-5.5,31.3-14.7
	c6-9.2,5.6-23.6-0.9-32.1C710.4,417.9,700.3,418.5,694.3,427.7z"/>
<path class="st5" d="M720.6,604.7c-2.9,4.8-4.7,16.9-5.8,27.4l5.4,6.3l-5.8-2.2c-0.7,7.9-1,14-1,14s23.2-5.5,28.7-14.7
	s5.1-23.6-0.8-32.1S726.1,595.5,720.6,604.7z"/>
<path class="st4" d="M593.8,117.1c0,0,29.8-5.2,36.2,33.6s23.3,115.1,23.3,115.1l-4.6,116.5l-43.2-14.3l1.3-89.3l-22-133.3
	L593.8,117.1z"/>
<polygon class="st8" points="582.8,169.5 599.6,279.5 595.7,372.6 613.8,282 "/>
<path class="st5" d="M715.3,78.8c-8.6,7.1-23.7,42.2-23.7,42.2c4.8,0.5,9.7,0.7,14.6,0.5l-1.7-9.3l6.3,8.9c2.5-0.3,4.9-0.8,7.3-1.5
	l-2.6-14.3l8.2,11.6c0.1,0,0.1-0.1,0.2-0.1c8.6-7.1,13.6-21.4,11.3-31.9S723.9,71.6,715.3,78.8z"/>
</svg>
